<svg id="svg" version="1.1" xmlns="http://www.w3.org/2000/svg" xmlns:xlink="http://www.w3.org/1999/xlink" width="400" height="400" viewBox="0, 0, 400,400"><g id="svgg"><path id="path0" d="M111.067 159.067 C 110.920 159.213,110.800 159.748,110.800 160.255 C 110.800 160.960,110.494 161.256,109.500 161.512 C 108.501 161.769,108.171 162.090,108.076 162.899 C 107.981 163.698,107.698 163.981,106.899 164.076 C 106.095 164.171,105.769 164.501,105.518 165.474 C 105.264 166.464,104.947 166.776,104.095 166.874 C 103.238 166.973,102.973 167.238,102.874 168.095 C 102.776 168.947,102.464 169.264,101.474 169.518 C 100.501 169.769,100.171 170.095,100.076 170.899 C 99.981 171.698,99.698 171.981,98.899 172.076 C 98.095 172.171,97.769 172.501,97.518 173.474 C 97.264 174.464,96.947 174.776,96.095 174.874 C 95.251 174.971,94.972 175.241,94.878 176.048 C 94.787 176.839,94.443 177.186,93.478 177.461 C 91.679 177.975,91.194 181.818,92.985 181.368 C 94.984 180.866,96.649 182.084,97.046 184.337 C 97.208 185.262,97.600 185.373,97.600 184.494 C 97.600 183.345,98.843 183.035,101.190 183.598 C 102.903 184.009,104.800 183.720,104.800 183.049 C 104.800 182.497,103.082 178.122,102.671 177.628 C 102.384 177.283,102.183 176.775,102.225 176.500 C 102.266 176.225,102.328 175.685,102.362 175.300 C 102.421 174.633,102.444 174.633,102.832 175.300 C 103.069 175.707,103.716 176.000,104.377 176.000 C 105.022 176.000,105.615 176.261,105.746 176.603 C 106.292 178.026,107.893 178.192,109.157 176.958 C 112.416 173.775,113.213 173.200,114.365 173.200 C 115.018 173.200,115.666 173.017,115.804 172.793 C 116.188 172.173,116.800 172.740,116.800 173.717 C 116.800 174.285,115.395 175.996,112.750 178.650 C 108.305 183.111,108.274 183.228,111.305 184.234 C 112.457 184.617,114.192 185.351,115.160 185.865 C 116.127 186.379,117.217 186.800,117.582 186.800 C 117.946 186.800,118.823 187.227,119.531 187.749 C 120.238 188.271,121.668 189.015,122.708 189.402 C 123.749 189.790,124.985 190.456,125.456 190.882 C 126.378 191.717,128.819 191.766,129.084 190.955 C 129.164 190.710,128.593 189.873,127.815 189.095 C 127.037 188.317,126.400 187.467,126.400 187.206 C 126.400 186.946,125.327 184.752,124.016 182.332 C 122.705 179.912,121.516 177.542,121.374 177.066 C 121.233 176.590,120.856 175.787,120.537 175.282 C 119.596 173.791,120.194 172.684,121.735 173.063 C 123.633 173.530,125.720 173.323,126.236 172.618 C 126.766 171.894,127.407 172.426,127.662 173.799 C 127.987 175.546,130.090 176.019,136.400 175.763 C 143.633 175.470,148.387 176.014,150.376 177.361 C 151.159 177.891,152.385 178.446,153.100 178.594 C 153.815 178.742,155.137 179.479,156.038 180.232 C 156.939 180.984,157.833 181.600,158.025 181.600 C 158.321 181.600,158.976 182.156,161.630 184.663 C 163.053 186.008,165.205 189.003,165.594 190.181 C 165.851 190.962,166.223 191.600,166.421 191.600 C 167.012 191.600,167.877 193.668,168.179 195.800 C 168.335 196.900,168.899 198.552,169.431 199.471 C 169.972 200.405,170.400 201.785,170.400 202.598 C 170.400 206.856,173.549 206.544,174.360 202.205 C 174.662 200.588,174.659 192.997,174.356 191.300 C 174.307 191.025,173.765 190.800,173.152 190.800 C 172.065 190.800,172.035 190.740,171.919 188.302 C 171.803 185.873,171.767 185.799,170.600 185.601 C 169.591 185.429,169.380 185.190,169.275 184.098 C 169.165 182.964,169.004 182.800,168.000 182.800 C 166.996 182.800,166.835 182.636,166.725 181.500 C 166.616 180.362,166.440 180.185,165.324 180.076 C 164.212 179.969,164.031 179.788,163.924 178.676 C 163.815 177.560,163.638 177.384,162.500 177.275 C 161.357 177.164,161.200 177.008,161.200 175.975 C 161.200 174.893,161.086 174.800,159.763 174.800 C 158.652 174.800,158.277 174.614,158.112 173.984 C 157.782 172.721,155.930 172.000,153.020 172.000 L 150.400 172.000 150.400 170.846 C 150.400 169.304,148.555 169.075,137.576 169.257 L 129.329 169.394 128.351 168.258 C 127.623 167.411,126.905 167.069,125.539 166.914 C 122.413 166.562,121.343 162.800,124.369 162.800 C 125.597 162.800,126.400 163.451,126.400 164.447 C 126.400 165.017,126.869 165.157,129.153 165.267 L 131.907 165.400 131.853 163.615 C 131.804 161.961,131.704 161.802,130.500 161.457 C 129.785 161.252,129.200 160.853,129.200 160.571 C 129.200 158.978,128.239 158.800,119.638 158.800 C 115.070 158.800,111.213 158.920,111.067 159.067 M112.755 167.068 C 113.624 167.917,114.062 168.000,117.667 168.000 C 122.064 168.000,122.488 168.257,121.604 170.390 C 120.642 172.712,117.447 172.880,114.723 170.753 C 113.911 170.119,112.931 169.600,112.545 169.600 C 111.761 169.600,109.600 167.696,109.600 167.005 C 109.600 165.484,111.164 165.516,112.755 167.068 M17.467 167.371 C 17.277 167.865,17.411 172.597,17.650 173.833 C 17.696 174.072,17.928 174.293,18.167 174.324 C 18.405 174.356,19.545 174.499,20.700 174.642 L 22.800 174.902 22.800 204.004 L 22.800 233.107 20.243 233.381 L 17.685 233.655 17.411 235.849 C 17.260 237.056,17.257 238.756,17.405 239.627 L 17.672 241.211 30.936 241.105 L 44.200 241.000 44.083 239.600 C 44.019 238.830,43.956 237.767,43.945 237.239 C 43.933 236.710,43.805 236.441,43.662 236.640 C 43.518 236.840,42.860 237.066,42.200 237.142 C 41.540 237.219,40.697 237.443,40.326 237.641 C 38.124 238.815,32.400 237.766,32.400 236.188 C 32.400 235.995,31.815 235.235,31.100 234.497 L 29.800 233.156 29.668 203.773 L 29.537 174.390 28.520 173.695 C 27.960 173.313,27.065 172.594,26.531 172.097 C 25.996 171.601,24.821 171.029,23.921 170.827 C 22.035 170.403,21.615 169.908,21.606 168.100 C 21.599 166.647,17.988 166.011,17.467 167.371 M37.610 167.826 C 38.125 169.181,38.145 169.103,37.006 170.160 C 36.012 171.081,35.818 171.709,35.937 173.614 C 36.003 174.676,36.294 174.736,40.093 174.475 L 41.187 174.400 40.971 171.337 C 40.811 169.062,40.889 168.190,41.278 167.944 C 41.665 167.698,41.613 167.611,41.076 167.606 C 40.678 167.603,40.464 167.420,40.600 167.200 C 40.751 166.956,40.141 166.800,39.034 166.800 C 37.252 166.800,37.227 166.818,37.610 167.826 M62.836 170.152 C 62.912 174.606,62.874 174.582,70.300 174.786 C 70.687 174.797,70.800 177.193,70.800 185.395 L 70.800 195.989 72.272 197.338 L 73.744 198.687 72.707 199.367 C 71.768 199.982,69.991 200.044,54.028 200.013 C 33.910 199.974,33.297 200.076,35.423 203.111 L 36.045 204.000 53.423 204.000 L 70.800 204.000 70.800 217.600 C 70.800 229.328,70.719 231.200,70.209 231.200 C 69.884 231.200,69.344 231.619,69.008 232.132 C 68.601 232.753,67.708 233.222,66.329 233.541 C 63.475 234.199,63.199 234.518,63.206 237.149 C 63.217 241.295,62.960 241.225,78.191 241.189 C 87.700 241.166,90.802 241.041,90.806 240.679 C 90.810 240.348,90.917 240.365,91.150 240.734 C 91.623 241.479,91.839 240.765,91.965 238.045 C 92.054 236.124,91.988 235.919,91.355 236.162 C 90.686 236.419,90.684 236.391,91.322 235.686 C 92.200 234.716,92.178 234.400,91.233 234.400 C 90.812 234.400,90.380 234.175,90.274 233.900 C 90.168 233.625,90.101 233.805,90.126 234.300 C 90.150 234.795,90.306 235.200,90.473 235.200 C 90.639 235.200,90.672 235.469,90.546 235.798 C 90.419 236.126,90.179 236.311,90.012 236.207 C 89.844 236.104,89.395 236.364,89.014 236.785 C 87.335 238.639,79.600 238.591,79.600 236.726 C 79.600 236.481,78.970 235.669,78.200 234.921 L 76.800 233.561 76.800 203.991 L 76.800 174.421 75.624 173.813 C 74.978 173.478,74.210 172.863,73.917 172.446 C 73.625 172.029,72.579 171.457,71.593 171.174 C 69.129 170.468,68.800 170.135,68.800 168.351 L 68.800 166.800 65.789 166.800 L 62.779 166.800 62.836 170.152 M83.841 169.773 C 83.388 174.768,84.215 175.531,88.638 174.204 C 89.172 174.044,89.298 171.600,88.773 171.600 C 88.568 171.600,88.400 171.409,88.400 171.176 C 88.400 170.943,88.550 170.845,88.733 170.959 C 88.917 171.072,89.067 170.911,89.067 170.600 C 89.067 170.289,88.897 170.140,88.689 170.269 C 88.481 170.397,88.164 170.266,87.986 169.977 C 87.748 169.592,87.519 169.568,87.130 169.886 C 86.470 170.426,85.680 169.698,85.829 168.685 C 85.884 168.309,85.630 167.826,85.265 167.612 C 84.899 167.399,84.785 167.219,85.011 167.212 C 85.237 167.205,85.820 167.479,86.306 167.819 C 87.043 168.335,87.153 168.342,86.967 167.858 C 86.761 167.322,85.608 166.818,84.555 166.805 C 84.292 166.802,84.000 168.014,83.841 169.773 M87.200 167.274 C 87.200 167.479,87.335 167.565,87.500 167.466 C 87.891 167.229,88.826 168.240,88.509 168.557 C 88.376 168.691,88.454 168.800,88.683 168.800 C 88.913 168.800,89.100 168.373,89.100 167.850 C 89.100 167.117,88.883 166.900,88.150 166.900 C 87.627 166.900,87.200 167.068,87.200 167.274 M182.885 170.500 C 182.950 172.591,183.174 174.216,183.400 174.236 C 183.620 174.256,184.716 174.410,185.836 174.579 L 187.872 174.886 188.138 189.443 C 188.285 197.449,188.285 210.553,188.138 218.563 L 187.872 233.126 186.686 233.363 C 186.034 233.493,185.002 233.600,184.393 233.600 C 183.015 233.600,182.800 234.138,182.800 237.584 C 182.800 241.447,181.895 241.222,197.259 241.190 C 212.152 241.159,211.635 241.255,211.905 238.453 L 212.100 236.421 210.650 236.475 C 209.852 236.505,209.200 236.695,209.200 236.898 C 209.200 237.101,208.975 237.191,208.700 237.098 C 208.425 237.005,207.300 237.168,206.200 237.460 C 203.164 238.265,200.149 238.164,199.300 237.229 C 195.912 233.496,196.202 236.546,196.182 204.417 C 196.170 183.949,196.036 175.572,195.714 175.000 C 194.764 173.315,192.438 171.415,190.558 170.788 C 188.669 170.158,188.596 170.077,188.477 168.468 L 188.354 166.800 185.562 166.800 L 182.770 166.800 182.885 170.500 M244.271 167.359 C 243.861 168.428,244.309 173.697,244.838 174.024 C 245.120 174.198,246.847 174.465,248.676 174.618 L 252.000 174.895 252.005 197.747 C 252.011 222.923,251.977 222.400,253.647 222.400 L 254.800 222.400 254.800 225.174 C 254.800 228.407,255.296 229.995,256.395 230.283 C 256.904 230.416,257.270 230.965,257.435 231.844 C 257.653 233.005,257.851 233.200,258.819 233.200 C 259.802 233.200,259.966 233.370,260.075 234.500 C 260.185 235.643,260.357 235.815,261.500 235.925 C 262.628 236.034,262.800 236.199,262.800 237.173 C 262.800 238.344,263.903 238.783,266.873 238.796 C 267.746 238.799,267.971 239.006,268.073 239.900 L 268.200 241.000 281.300 241.105 L 294.400 241.211 294.400 240.229 C 294.400 238.995,294.597 238.881,297.150 238.631 C 299.467 238.404,300.049 238.163,299.963 237.470 C 299.829 236.381,300.046 236.000,300.800 236.000 C 301.240 236.000,301.603 235.775,301.606 235.500 C 301.611 235.129,301.700 235.139,301.953 235.538 C 302.203 235.932,302.368 235.784,302.569 234.980 C 303.080 232.945,298.600 232.145,297.186 234.019 C 296.755 234.590,295.877 234.940,294.358 235.146 C 292.962 235.336,291.849 235.751,291.320 236.280 C 289.617 237.983,274.128 238.162,272.870 236.494 C 272.494 235.995,271.560 235.413,270.793 235.201 C 269.070 234.723,264.780 230.621,263.805 228.520 C 263.418 227.684,262.778 226.640,262.383 226.200 C 261.700 225.439,259.923 219.250,259.176 215.034 C 258.984 213.952,258.796 204.412,258.758 193.834 C 258.686 173.646,258.647 173.200,256.947 173.200 C 256.656 173.200,256.133 172.764,255.783 172.231 C 255.366 171.593,254.607 171.170,253.566 170.994 C 251.547 170.653,250.800 169.891,250.800 168.171 L 250.800 166.800 247.643 166.800 C 245.309 166.800,244.430 166.946,244.271 167.359 M267.527 168.229 C 267.684 169.570,266.593 171.200,265.539 171.200 C 265.352 171.200,265.200 171.991,265.200 172.958 L 265.200 174.715 267.548 174.595 C 270.719 174.432,273.666 172.733,272.609 171.676 C 272.494 171.561,272.400 171.699,272.400 171.982 C 272.400 172.381,272.272 172.392,271.836 172.030 C 271.450 171.709,271.189 171.694,271.012 171.981 C 270.767 172.377,271.028 172.554,271.700 172.447 C 272.185 172.371,272.048 172.663,271.323 173.251 C 270.863 173.624,270.743 173.640,270.947 173.300 C 271.112 173.025,271.057 172.800,270.824 172.800 C 270.187 172.800,270.314 171.958,271.078 171.114 C 271.719 170.405,271.714 170.380,270.978 170.647 C 270.550 170.801,270.320 170.794,270.466 170.631 C 270.612 170.468,270.477 169.725,270.166 168.980 C 269.642 167.727,269.653 167.645,270.300 167.887 C 270.886 168.107,270.919 168.051,270.505 167.540 C 269.410 166.191,267.345 166.669,267.527 168.229 M292.245 167.128 C 291.882 167.714,292.188 173.550,292.603 173.964 C 292.825 174.185,294.535 174.455,296.403 174.563 L 299.800 174.759 299.903 196.151 C 300.006 217.273,299.997 217.547,299.203 217.799 C 298.051 218.165,297.648 219.149,297.396 222.217 C 297.130 225.445,297.052 225.600,295.700 225.600 C 294.685 225.600,294.675 225.622,295.424 226.201 C 296.071 226.702,296.084 226.761,295.500 226.558 C 294.978 226.376,294.800 226.528,294.800 227.157 C 294.800 227.854,295.043 228.000,296.200 228.000 C 297.188 228.000,297.600 227.820,297.600 227.390 C 297.600 227.027,298.105 226.679,298.845 226.531 C 299.779 226.344,300.235 225.936,300.669 224.897 C 300.987 224.136,301.582 223.425,301.991 223.318 C 303.030 223.047,303.476 221.717,304.384 216.200 C 305.270 210.814,305.421 174.661,304.560 174.072 C 304.341 173.923,303.753 173.215,303.253 172.500 C 302.754 171.785,302.043 171.199,301.673 171.199 C 300.069 171.195,298.400 169.669,298.400 168.206 L 298.400 166.800 295.424 166.800 C 293.787 166.800,292.356 166.948,292.245 167.128 M313.594 167.592 C 314.141 168.006,314.456 168.478,314.294 168.639 C 314.132 168.801,314.000 168.723,314.000 168.467 C 314.000 167.504,313.291 168.046,313.063 169.183 C 312.908 169.961,312.412 170.580,311.613 170.993 C 309.647 172.010,310.082 174.431,312.245 174.515 C 314.596 174.606,316.441 174.390,316.229 174.048 C 316.110 173.854,317.314 173.944,318.906 174.247 C 320.498 174.551,322.916 174.799,324.281 174.800 L 326.762 174.800 326.881 177.300 C 326.994 179.666,327.056 179.807,328.051 179.922 C 328.993 180.031,329.131 180.260,329.377 182.112 C 329.683 184.420,330.150 185.200,331.224 185.200 C 331.750 185.200,331.984 185.557,332.075 186.500 C 332.185 187.643,332.357 187.815,333.500 187.925 L 334.800 188.051 334.800 190.625 C 334.800 193.184,334.807 193.200,335.930 193.200 C 337.010 193.200,337.076 193.311,337.430 195.700 C 337.774 198.023,337.878 198.209,338.900 198.327 C 339.862 198.437,340.000 198.626,340.000 199.827 C 340.000 201.130,340.072 201.200,341.400 201.200 C 343.487 201.200,343.580 203.874,341.500 204.075 C 340.357 204.185,340.185 204.357,340.075 205.499 C 339.980 206.486,339.718 206.856,338.982 207.040 C 338.005 207.286,337.207 209.093,337.202 211.073 C 337.201 211.728,336.925 211.979,336.100 212.073 C 335.046 212.195,334.995 212.304,334.881 214.700 C 334.779 216.833,334.652 217.200,334.014 217.200 C 332.588 217.200,332.000 217.672,332.000 218.816 C 332.000 219.752,331.811 219.969,330.900 220.073 C 329.878 220.191,329.775 220.375,329.450 222.660 C 329.125 224.940,329.015 225.137,327.950 225.350 C 326.996 225.541,326.800 225.781,326.800 226.758 C 326.800 227.733,326.600 227.980,325.641 228.191 C 324.376 228.469,324.014 229.244,324.005 231.700 C 324.000 233.066,323.901 233.201,322.900 233.212 C 318.034 233.263,316.000 233.627,316.000 234.447 C 316.000 234.667,316.225 234.712,316.500 234.547 C 316.875 234.321,316.870 234.406,316.481 234.887 C 316.138 235.310,316.002 236.457,316.081 238.264 L 316.200 241.000 327.600 241.089 C 340.540 241.190,340.000 241.328,340.000 237.924 C 340.000 236.380,339.866 236.000,339.320 236.000 C 338.791 236.000,338.747 236.107,339.120 236.480 C 339.384 236.744,339.600 237.117,339.600 237.309 C 339.600 237.500,339.317 237.374,338.971 237.029 C 338.156 236.213,337.335 236.230,336.864 237.071 C 336.436 237.835,331.809 238.369,331.168 237.728 C 329.474 236.034,329.852 231.323,331.858 229.124 C 332.322 228.616,332.918 227.525,333.182 226.700 C 333.446 225.874,334.188 224.673,334.831 224.030 C 335.474 223.388,336.000 222.519,336.000 222.100 C 336.000 221.682,336.452 220.915,337.004 220.396 C 337.557 219.877,338.194 218.765,338.420 217.925 C 338.648 217.079,339.259 216.118,339.790 215.770 C 340.318 215.424,340.867 214.604,341.012 213.946 C 341.156 213.289,341.805 212.209,342.453 211.546 C 343.102 210.882,343.742 209.792,343.875 209.123 C 344.204 207.482,347.465 205.294,348.316 206.145 C 348.751 206.580,348.776 207.020,348.436 208.248 C 347.418 211.911,348.410 216.800,350.170 216.800 C 350.553 216.800,350.794 217.311,350.876 218.300 C 350.982 219.585,351.151 219.817,352.056 219.922 C 353.041 220.036,353.130 220.217,353.388 222.622 C 353.654 225.108,353.703 225.200,354.776 225.200 C 355.829 225.200,355.900 225.316,356.114 227.390 C 356.390 230.064,356.581 230.400,357.824 230.400 C 358.673 230.400,358.800 230.582,358.800 231.800 C 358.800 233.108,358.886 233.202,360.100 233.225 C 361.286 233.248,361.320 233.283,360.494 233.615 C 358.941 234.239,358.565 236.392,359.443 239.639 C 359.810 240.999,361.424 241.200,371.969 241.200 L 382.300 241.200 382.550 239.950 C 382.940 237.998,382.858 236.717,382.362 237.024 C 380.000 238.483,373.451 238.032,371.865 236.300 C 371.110 235.475,370.218 234.800,369.883 234.800 C 369.049 234.800,366.165 231.275,365.183 229.054 C 364.740 228.052,364.198 227.123,363.980 226.987 C 363.761 226.852,363.050 225.688,362.400 224.400 C 361.750 223.112,361.031 221.943,360.803 221.802 C 360.575 221.661,360.112 220.885,359.775 220.078 C 359.438 219.271,358.825 218.248,358.413 217.805 C 358.001 217.362,357.366 216.249,357.001 215.331 C 356.636 214.413,356.109 213.574,355.830 213.467 C 355.551 213.360,354.914 212.266,354.415 211.036 C 353.915 209.806,353.342 208.800,353.139 208.800 C 352.937 208.800,352.406 207.945,351.960 206.900 C 351.514 205.855,350.730 204.550,350.219 204.000 C 349.708 203.450,349.155 202.550,348.990 202.000 C 348.825 201.450,348.297 200.529,347.816 199.953 C 347.335 199.377,346.696 198.297,346.397 197.553 C 346.098 196.809,345.437 195.691,344.927 195.069 C 344.417 194.447,344.000 193.703,344.000 193.414 C 344.000 193.126,343.405 192.015,342.678 190.945 C 341.950 189.875,341.118 188.415,340.829 187.700 C 340.540 186.985,340.169 186.400,340.006 186.400 C 339.843 186.400,339.227 185.326,338.638 184.013 C 338.049 182.701,337.385 181.514,337.162 181.377 C 336.940 181.239,336.316 180.198,335.777 179.063 C 334.449 176.268,332.966 174.311,331.674 173.651 C 331.083 173.350,330.205 172.742,329.722 172.302 C 329.239 171.862,327.889 171.191,326.722 170.812 C 324.649 170.138,324.597 170.085,324.477 168.461 L 324.354 166.800 320.977 166.800 C 319.120 166.800,317.600 166.959,317.600 167.153 C 317.600 167.348,317.140 167.595,316.577 167.702 C 315.824 167.846,315.609 167.753,315.764 167.349 C 316.024 166.672,315.527 166.633,314.880 167.280 C 314.616 167.544,314.400 167.582,314.400 167.365 C 314.400 167.148,313.995 166.941,313.500 166.905 C 312.606 166.839,312.607 166.844,313.594 167.592 M339.010 167.500 C 339.084 167.885,339.359 169.572,339.621 171.250 C 340.059 174.062,340.170 174.300,341.048 174.300 C 341.918 174.300,342.234 173.774,342.033 172.658 C 342.000 172.470,342.203 172.030,342.486 171.681 C 342.878 171.197,342.882 171.118,342.500 171.347 C 342.131 171.569,342.000 171.192,342.000 169.904 C 342.000 168.945,341.775 167.918,341.500 167.621 C 341.163 167.258,341.154 167.169,341.472 167.348 C 341.732 167.494,342.058 167.430,342.196 167.207 C 342.352 166.954,341.769 166.800,340.661 166.800 C 339.175 166.800,338.898 166.918,339.010 167.500 M356.747 167.235 C 354.579 168.582,356.751 174.400,359.421 174.400 C 360.939 174.400,361.587 175.006,360.400 175.316 C 359.503 175.551,358.800 177.092,358.800 178.826 C 358.800 179.784,358.631 180.000,357.880 180.000 C 356.467 180.000,356.000 180.766,356.000 183.080 C 356.000 185.026,355.924 185.200,355.080 185.200 C 353.908 185.200,353.200 185.908,353.200 187.080 C 353.200 187.699,352.965 188.000,352.480 188.000 C 351.121 188.000,350.800 188.850,350.800 192.448 L 350.800 195.936 352.071 196.216 C 353.539 196.538,354.396 195.734,354.406 194.024 C 354.414 192.783,354.735 192.259,355.847 191.674 C 356.401 191.383,356.781 190.681,356.947 189.641 C 357.126 188.523,357.540 187.813,358.348 187.237 C 359.002 186.771,359.601 185.897,359.739 185.205 C 359.889 184.453,360.352 183.823,360.956 183.547 C 361.631 183.240,362.063 182.572,362.367 181.365 C 362.629 180.326,363.140 179.446,363.636 179.181 C 364.094 178.936,364.717 178.139,365.022 177.410 C 365.326 176.681,366.042 175.744,366.613 175.329 L 367.651 174.572 366.601 173.439 C 364.920 171.625,363.623 169.339,363.522 168.012 L 363.429 166.784 360.361 166.839 C 358.674 166.870,357.047 167.048,356.747 167.235 M374.462 168.396 C 374.409 169.300,374.193 170.492,373.983 171.046 C 372.925 173.828,374.256 175.436,376.891 174.556 C 377.391 174.389,378.189 174.241,378.664 174.226 C 380.782 174.162,382.120 169.757,380.475 168.267 C 379.895 167.743,379.642 167.710,379.216 168.105 C 378.893 168.405,378.783 168.420,378.937 168.145 C 379.077 167.895,378.889 167.445,378.519 167.145 C 377.940 166.676,377.896 166.684,378.200 167.200 C 378.480 167.675,378.433 167.711,377.977 167.374 C 376.322 166.153,374.564 166.664,374.462 168.396 M316.470 168.890 C 316.250 169.110,315.855 169.157,315.592 168.995 C 315.229 168.771,315.240 168.622,315.638 168.376 C 316.321 167.955,316.991 168.369,316.470 168.890 M380.350 170.094 C 379.900 170.933,379.534 171.039,379.840 170.240 C 379.958 169.933,379.870 169.567,379.645 169.428 C 379.419 169.288,379.338 168.905,379.465 168.575 C 379.660 168.066,379.772 168.082,380.211 168.683 C 380.561 169.161,380.606 169.616,380.350 170.094 M272.579 170.366 C 272.703 170.567,272.579 170.823,272.302 170.934 C 271.999 171.056,272.078 171.149,272.500 171.168 C 272.885 171.186,273.200 170.930,273.200 170.600 C 273.200 170.270,273.009 170.000,272.776 170.000 C 272.543 170.000,272.455 170.165,272.579 170.366 M200.891 171.450 C 200.675 171.865,200.644 172.557,200.822 173.000 C 200.999 173.440,201.156 174.276,201.172 174.857 C 201.201 175.957,202.180 176.680,202.637 175.940 C 202.812 175.657,203.017 175.696,203.250 176.057 C 203.518 176.473,203.658 176.390,203.847 175.700 C 204.286 174.098,209.131 174.357,209.460 176.000 C 209.697 177.183,209.737 177.200,212.250 177.200 L 214.800 177.200 214.800 178.600 C 214.800 179.889,214.895 180.000,216.000 180.000 C 217.145 180.000,217.200 180.079,217.203 181.700 C 217.212 186.043,217.637 187.627,218.858 187.872 C 220.521 188.204,220.677 193.600,219.024 193.600 C 217.691 193.600,217.537 193.979,217.394 197.610 C 217.325 199.345,217.166 200.932,217.039 201.137 C 216.913 201.342,217.167 201.603,217.604 201.717 C 218.120 201.852,218.400 202.263,218.400 202.887 C 218.400 203.984,220.296 205.600,221.584 205.600 C 222.043 205.600,222.400 205.863,222.400 206.200 C 222.400 206.863,223.416 207.022,223.789 206.417 C 223.919 206.207,224.305 206.142,224.647 206.274 C 225.087 206.442,225.246 206.291,225.189 205.756 C 225.046 204.421,225.187 204.000,225.776 204.000 C 226.093 204.000,226.443 203.854,226.553 203.676 C 226.663 203.498,225.712 203.428,224.440 203.520 C 220.557 203.801,219.316 200.845,222.408 198.679 C 222.913 198.325,223.529 196.997,224.037 195.164 C 224.486 193.544,225.030 192.004,225.247 191.743 C 228.601 187.702,221.805 173.975,215.991 173.045 C 215.182 172.916,214.017 172.414,213.402 171.930 C 211.776 170.651,201.512 170.257,200.891 171.450 M344.400 173.100 C 344.400 173.338,343.905 173.714,343.300 173.935 C 342.695 174.156,342.481 174.351,342.824 174.368 C 343.654 174.410,345.078 173.345,344.699 172.966 C 344.535 172.801,344.400 172.862,344.400 173.100 M133.600 185.151 C 133.600 185.398,133.770 185.600,133.977 185.600 C 134.184 185.600,134.423 186.365,134.507 187.300 L 134.660 189.000 134.730 187.349 C 134.775 186.298,134.582 185.517,134.200 185.200 C 133.785 184.856,133.600 184.841,133.600 185.151 M106.530 185.516 C 103.473 185.830,102.380 189.596,105.343 189.605 C 107.846 189.614,108.773 189.987,109.426 191.251 C 110.350 193.037,116.800 192.817,116.800 190.999 C 116.800 190.920,115.405 190.186,113.700 189.368 C 111.995 188.550,110.329 187.592,109.997 187.240 C 108.695 185.859,107.753 185.391,106.530 185.516 M101.000 190.695 C 99.484 190.917,98.937 191.371,98.702 192.602 C 98.367 194.351,99.487 194.909,101.896 194.194 L 103.931 193.589 103.305 191.995 C 102.961 191.118,102.571 190.427,102.439 190.460 C 102.308 190.493,101.660 190.599,101.000 190.695 M117.449 193.121 C 115.552 196.190,118.274 198.090,123.308 197.208 C 124.899 196.930,126.740 196.746,127.400 196.801 C 128.952 196.929,129.321 196.912,132.254 196.577 L 134.707 196.297 134.695 194.649 C 134.688 193.742,134.602 193.360,134.503 193.800 C 134.404 194.240,134.147 194.780,133.933 195.000 C 133.676 195.264,133.587 195.202,133.671 194.818 C 133.742 194.498,133.620 194.218,133.400 194.195 C 133.180 194.172,132.227 194.011,131.281 193.838 C 129.737 193.555,129.465 193.629,128.600 194.562 C 127.305 195.960,125.481 195.915,122.631 194.416 C 120.126 193.099,117.819 192.522,117.449 193.121 M106.662 194.731 C 106.298 195.134,106.000 195.909,106.000 196.455 C 106.000 197.001,105.736 197.796,105.413 198.224 C 104.733 199.122,104.618 199.760,105.200 199.400 C 105.434 199.255,105.600 199.670,105.600 200.399 C 105.600 203.443,107.530 207.713,108.342 206.465 C 108.534 206.171,108.789 204.551,108.909 202.865 C 109.142 199.608,109.453 198.400,110.059 198.400 C 111.201 198.400,115.748 195.822,114.854 195.681 C 114.334 195.599,113.344 195.188,112.654 194.768 C 110.966 193.738,107.579 193.718,106.662 194.731 M167.816 207.832 C 167.444 208.400,167.042 209.464,166.923 210.197 C 166.739 211.331,166.506 211.566,165.353 211.782 C 164.132 212.012,164.000 212.168,164.000 213.392 C 164.000 214.573,163.859 214.763,162.900 214.873 C 161.877 214.991,161.775 215.174,161.447 217.479 C 161.124 219.747,161.006 219.967,160.047 220.079 C 159.194 220.178,158.977 220.436,158.876 221.476 C 158.769 222.588,158.588 222.769,157.476 222.876 C 156.434 222.977,156.178 223.193,156.078 224.054 C 155.984 224.862,155.678 225.164,154.769 225.346 C 153.848 225.530,153.529 225.853,153.342 226.792 C 153.110 227.949,153.013 228.000,151.030 228.000 C 148.764 228.000,148.000 228.474,148.000 229.880 L 148.000 230.800 140.000 230.800 L 132.000 230.800 132.000 229.880 C 132.000 228.472,131.235 228.000,128.952 228.000 C 126.967 228.000,126.851 227.942,126.606 226.826 C 126.412 225.944,126.056 225.588,125.174 225.394 C 124.430 225.231,124.000 224.884,124.000 224.448 C 124.000 223.492,123.211 222.800,122.120 222.800 C 121.363 222.800,121.200 222.586,121.200 221.590 C 121.200 220.576,121.013 220.343,120.045 220.149 C 119.061 219.952,118.851 219.679,118.632 218.309 C 118.285 216.138,117.728 215.200,116.786 215.200 C 116.048 215.200,115.736 214.057,115.956 212.161 C 115.986 211.901,115.435 211.760,114.604 211.816 C 113.410 211.896,113.198 211.782,113.187 211.055 C 113.155 208.912,110.842 207.711,110.059 209.430 C 109.171 211.379,109.737 217.600,110.802 217.600 C 110.979 217.600,111.391 218.381,111.716 219.336 C 112.422 221.408,115.925 226.312,118.200 228.412 C 120.088 230.156,122.540 231.988,123.289 232.215 C 123.790 232.366,124.650 232.898,125.200 233.396 C 125.750 233.895,127.190 234.528,128.400 234.803 C 129.610 235.077,131.630 235.729,132.888 236.251 C 136.257 237.648,143.642 237.638,146.661 236.233 C 147.795 235.705,149.775 235.059,151.061 234.797 C 152.409 234.523,153.824 233.934,154.400 233.406 C 154.950 232.902,155.803 232.368,156.296 232.219 C 157.983 231.710,164.263 225.675,165.474 223.400 C 165.825 222.740,166.515 221.718,167.006 221.129 C 167.498 220.539,168.028 219.377,168.184 218.546 C 168.340 217.716,168.902 216.519,169.434 215.887 C 170.465 214.661,170.676 212.523,170.146 208.656 C 169.848 206.488,168.913 206.157,167.816 207.832 M206.693 208.027 C 201.008 208.280,200.575 208.473,200.968 210.570 L 201.236 212.000 206.618 212.000 L 212.000 212.000 212.000 213.826 C 212.000 216.140,212.562 217.200,213.789 217.200 C 214.580 217.200,214.771 217.429,214.875 218.500 C 214.979 219.583,215.183 219.821,216.100 219.927 C 216.858 220.014,217.200 220.283,217.200 220.794 C 217.200 221.922,217.629 222.800,218.181 222.800 C 219.081 222.800,220.000 224.241,220.000 225.651 C 220.000 227.266,220.588 228.000,221.880 228.000 C 222.630 228.000,222.800 228.216,222.800 229.168 C 222.800 230.136,223.002 230.381,223.976 230.595 C 224.873 230.792,225.181 231.108,225.276 231.927 C 225.378 232.814,225.626 233.022,226.700 233.125 C 227.890 233.240,228.000 233.367,228.000 234.625 C 228.000 235.930,228.072 236.000,229.400 236.000 C 230.677 236.000,230.800 236.101,230.800 237.157 C 230.800 238.447,231.363 238.800,233.421 238.800 C 234.463 238.800,234.981 239.077,235.663 240.000 L 236.550 241.200 245.425 241.200 L 254.300 241.200 254.550 239.950 C 255.045 237.473,254.329 234.412,253.698 236.307 C 253.616 236.553,253.295 236.658,252.986 236.539 C 252.677 236.421,251.944 236.701,251.358 237.162 C 250.418 237.901,249.755 238.000,245.759 238.000 L 241.227 238.000 239.827 236.600 C 239.057 235.830,238.181 235.200,237.881 235.200 C 237.241 235.200,232.501 230.298,230.200 227.256 C 229.320 226.093,228.150 224.612,227.600 223.965 C 224.321 220.109,224.334 220.125,221.000 215.593 C 220.185 214.485,219.875 214.126,217.477 211.517 C 216.728 210.702,215.828 209.597,215.477 209.061 C 214.688 207.857,213.542 207.723,206.693 208.027 M292.500 228.598 C 291.832 229.358,291.870 229.548,292.667 229.431 C 293.033 229.378,293.378 229.033,293.431 228.667 C 293.550 227.859,293.175 227.831,292.500 228.598 M43.506 234.391 C 44.159 235.093,44.433 236.458,44.531 239.500 C 44.608 241.894,46.000 239.577,46.000 237.055 C 46.000 235.590,45.805 235.105,44.946 234.429 C 43.540 233.323,42.485 233.295,43.506 234.391 M209.600 234.024 C 209.105 234.364,209.139 234.417,209.800 234.328 C 210.240 234.269,210.870 234.385,211.200 234.587 C 211.718 234.903,211.725 234.861,211.251 234.277 C 210.615 233.493,210.418 233.463,209.600 234.024 M338.022 234.173 C 337.592 234.692,337.578 234.938,337.961 235.317 C 338.342 235.696,338.384 235.627,338.156 235.000 L 337.864 234.200 338.825 235.000 C 339.354 235.440,339.588 235.530,339.347 235.200 C 339.105 234.870,338.832 234.355,338.739 234.056 C 338.606 233.626,338.456 233.651,338.022 234.173 M44.971 235.029 C 45.616 235.673,45.869 238.986,45.300 239.339 C 45.135 239.441,45.064 238.619,45.142 237.513 C 45.255 235.907,45.175 235.564,44.742 235.815 C 44.444 235.987,44.333 235.981,44.497 235.801 C 44.660 235.621,44.593 235.232,44.348 234.937 C 43.729 234.192,44.205 234.262,44.971 235.029 " stroke="none" fill="#fdd402" fill-rule="evenodd"></path><path id="path1" d="M122.835 163.358 C 121.838 164.559,123.454 166.679,125.547 166.915 C 126.989 167.078,127.621 167.400,128.450 168.393 C 130.267 170.568,131.785 170.036,131.851 167.200 L 131.903 165.000 129.151 165.133 C 126.677 165.252,126.400 165.190,126.400 164.513 C 126.400 162.930,123.870 162.110,122.835 163.358 M110.049 166.111 C 109.126 167.034,110.962 169.600,112.545 169.600 C 112.931 169.600,113.911 170.119,114.723 170.753 C 117.447 172.880,120.642 172.712,121.604 170.390 C 122.488 168.257,122.064 168.000,117.667 168.000 C 114.062 168.000,113.624 167.917,112.755 167.068 C 111.528 165.871,110.613 165.547,110.049 166.111 M21.606 168.100 C 21.615 169.908,22.035 170.403,23.921 170.827 C 24.821 171.029,25.996 171.601,26.531 172.097 C 27.065 172.594,27.960 173.313,28.520 173.695 L 29.537 174.390 29.668 203.773 L 29.800 233.156 31.100 234.497 C 31.815 235.235,32.400 236.027,32.400 236.257 C 32.400 237.764,38.198 238.776,40.326 237.641 C 40.697 237.443,41.540 237.219,42.200 237.142 C 42.860 237.066,43.518 236.840,43.662 236.640 C 43.805 236.441,43.931 236.710,43.941 237.239 C 44.000 240.475,44.779 241.665,45.865 240.179 C 47.219 238.328,46.111 233.600,44.324 233.600 C 44.061 233.600,44.196 233.864,44.624 234.187 C 45.188 234.614,45.242 234.778,44.820 234.787 C 44.369 234.797,44.347 234.907,44.720 235.280 C 44.984 235.544,45.200 236.570,45.200 237.560 C 45.200 239.830,44.483 239.287,44.344 236.911 C 44.192 234.328,43.010 233.200,40.453 233.200 L 38.400 233.200 38.400 231.433 C 38.400 229.050,38.091 228.400,36.957 228.400 L 36.000 228.400 35.987 216.100 C 35.977 205.919,35.873 203.666,35.387 203.024 C 33.186 200.113,34.049 199.974,54.028 200.013 C 69.991 200.044,71.768 199.982,72.707 199.367 L 73.744 198.687 72.278 197.344 L 70.812 196.000 53.406 196.000 L 36.000 196.000 35.937 184.300 C 35.861 170.267,35.783 171.293,37.006 170.160 C 38.145 169.103,38.125 169.181,37.610 167.826 L 37.220 166.800 29.410 166.800 L 21.600 166.800 21.606 168.100 M40.600 167.200 C 40.464 167.420,40.678 167.603,41.076 167.606 C 41.613 167.611,41.665 167.698,41.278 167.943 C 40.765 168.269,40.852 173.786,41.380 174.313 C 41.988 174.921,43.682 173.543,43.500 172.588 C 43.396 172.045,43.466 171.600,43.655 171.600 C 43.845 171.600,44.000 171.229,44.000 170.776 C 44.000 170.323,43.827 170.060,43.616 170.190 C 43.399 170.324,43.428 169.866,43.682 169.136 C 44.022 168.161,44.018 167.806,43.664 167.688 C 43.406 167.602,43.297 167.367,43.421 167.166 C 43.755 166.626,43.045 166.721,42.421 167.300 C 41.990 167.700,41.939 167.700,42.165 167.300 C 42.508 166.693,40.974 166.595,40.600 167.200 M68.800 168.351 C 68.800 170.135,69.129 170.468,71.593 171.174 C 72.579 171.457,73.625 172.029,73.917 172.446 C 74.210 172.863,74.978 173.478,75.624 173.813 L 76.800 174.421 76.800 203.991 L 76.800 233.561 78.200 234.921 C 78.970 235.669,79.600 236.481,79.600 236.726 C 79.600 238.591,87.335 238.639,89.014 236.785 C 89.395 236.364,89.844 236.104,90.012 236.207 C 90.179 236.311,90.419 236.126,90.546 235.798 C 90.672 235.469,90.601 235.200,90.387 235.200 C 90.174 235.200,90.021 235.065,90.047 234.900 C 90.293 233.345,90.033 233.200,87.000 233.200 L 84.000 233.200 83.905 203.300 C 83.853 186.855,83.866 171.915,83.934 170.100 L 84.057 166.800 76.429 166.800 L 68.800 166.800 68.800 168.351 M85.266 167.150 C 84.833 167.425,84.845 167.532,85.335 167.720 C 85.666 167.847,85.890 168.270,85.832 168.661 C 85.687 169.651,86.465 170.430,87.089 169.920 C 87.677 169.439,88.753 170.342,88.499 171.104 C 88.408 171.377,88.483 171.600,88.667 171.600 C 88.850 171.600,89.035 170.970,89.077 170.200 C 89.119 169.429,88.962 168.800,88.728 168.800 C 88.462 168.800,88.492 168.571,88.808 168.191 C 89.235 167.676,89.201 167.625,88.587 167.860 C 88.005 168.084,87.916 167.995,88.140 167.413 C 88.375 166.799,88.324 166.765,87.809 167.192 C 87.392 167.538,87.200 167.556,87.200 167.249 C 87.200 166.723,86.034 166.664,85.266 167.150 M188.477 168.460 C 188.596 170.078,188.667 170.158,190.558 170.788 C 192.438 171.415,194.764 173.315,195.714 175.000 C 196.036 175.572,196.170 183.949,196.182 204.417 C 196.202 236.546,195.912 233.496,199.300 237.229 C 200.149 238.164,203.164 238.265,206.200 237.460 C 207.300 237.168,208.425 237.005,208.700 237.098 C 208.975 237.191,209.200 237.064,209.200 236.816 C 209.200 236.568,209.425 236.394,209.700 236.430 C 211.919 236.718,212.760 235.711,211.300 234.514 C 210.915 234.199,210.853 234.072,211.162 234.232 C 211.547 234.432,211.627 234.368,211.417 234.027 C 211.196 233.669,210.988 233.652,210.675 233.965 C 210.436 234.204,209.961 234.397,209.620 234.394 C 209.128 234.389,209.110 234.318,209.534 234.049 C 210.275 233.580,208.781 233.212,206.100 233.205 L 204.000 233.200 203.995 223.700 C 203.988 212.834,203.947 212.540,202.372 212.194 C 201.231 211.943,200.341 209.866,200.951 208.878 C 201.759 207.572,214.291 207.562,215.303 208.867 C 216.014 209.784,218.159 212.274,219.511 213.753 C 219.890 214.167,220.560 214.995,221.000 215.593 C 224.334 220.125,224.321 220.109,227.600 223.965 C 228.150 224.612,229.320 226.093,230.200 227.256 C 232.501 230.298,237.241 235.200,237.881 235.200 C 238.181 235.200,239.057 235.830,239.827 236.600 L 241.227 238.000 245.759 238.000 C 249.755 238.000,250.418 237.901,251.358 237.162 C 251.944 236.701,252.688 236.425,253.012 236.549 C 253.335 236.673,253.600 236.581,253.600 236.345 C 253.600 236.108,253.870 236.018,254.200 236.145 C 254.608 236.301,254.800 236.123,254.800 235.587 C 254.800 235.154,254.620 234.800,254.400 234.800 C 254.180 234.800,254.045 234.575,254.100 234.300 C 254.155 234.025,253.975 233.845,253.700 233.900 C 253.425 233.955,253.200 233.820,253.200 233.600 C 253.200 233.365,251.816 233.200,249.847 233.200 C 246.836 233.200,246.472 233.119,246.285 232.405 C 246.040 231.467,244.497 230.800,242.574 230.800 C 241.270 230.800,241.200 230.728,241.200 229.400 C 241.200 228.111,241.105 228.000,240.000 228.000 C 239.014 228.000,238.800 227.836,238.800 227.080 C 238.800 225.925,238.096 225.200,236.974 225.200 C 236.248 225.200,236.068 224.902,235.854 223.340 C 235.563 221.222,235.032 220.400,233.951 220.400 C 233.483 220.400,233.181 220.098,233.150 219.600 C 233.123 219.160,233.075 218.575,233.045 218.300 C 233.014 218.025,232.497 217.807,231.895 217.816 C 231.028 217.828,230.800 217.648,230.800 216.948 C 230.800 215.375,230.361 214.800,229.157 214.800 C 228.101 214.800,228.000 214.677,228.000 213.400 C 228.000 212.067,227.933 212.000,226.600 212.000 L 225.200 212.000 225.200 210.029 C 225.200 208.774,224.973 207.830,224.574 207.432 C 224.230 207.088,224.077 206.580,224.233 206.303 C 224.461 205.900,224.410 205.900,223.979 206.300 C 223.243 206.983,222.400 206.929,222.400 206.200 C 222.400 205.863,222.043 205.600,221.584 205.600 C 220.340 205.600,218.400 203.984,218.400 202.948 C 218.400 201.841,218.056 201.614,216.062 201.406 C 213.625 201.153,212.200 201.678,212.200 202.831 C 212.200 203.786,212.141 203.802,208.100 203.914 L 204.000 204.028 203.989 202.514 C 203.983 201.681,203.988 195.361,204.000 188.470 C 204.014 180.000,203.888 176.022,203.610 176.194 C 203.385 176.333,203.200 176.221,203.200 175.944 C 203.200 175.571,203.083 175.557,202.751 175.889 C 202.082 176.558,201.200 176.043,201.200 174.983 C 201.200 174.471,201.032 173.609,200.826 173.067 C 200.027 170.967,200.848 170.670,206.881 170.875 C 211.684 171.038,212.419 171.157,213.407 171.934 C 214.019 172.416,215.182 172.916,215.991 173.045 C 221.805 173.975,228.601 187.702,225.247 191.743 C 225.030 192.004,224.486 193.544,224.037 195.164 C 223.529 196.997,222.913 198.325,222.408 198.679 C 219.316 200.845,220.557 203.801,224.440 203.520 C 225.712 203.428,226.663 203.498,226.553 203.676 C 226.223 204.209,226.815 204.042,227.429 203.429 C 228.118 202.739,228.183 202.239,227.532 202.642 C 227.200 202.847,227.160 202.709,227.393 202.166 C 227.574 201.745,227.804 200.815,227.905 200.100 C 228.035 199.177,228.298 198.800,228.815 198.800 C 230.150 198.800,230.800 197.678,230.800 195.371 C 230.800 193.547,230.915 193.200,231.520 193.200 C 233.013 193.200,233.200 192.435,233.200 186.310 L 233.200 180.380 232.000 180.140 C 230.901 179.920,230.800 179.762,230.795 178.250 C 230.785 175.512,230.452 174.800,229.179 174.800 C 228.198 174.800,228.034 174.630,227.925 173.500 C 227.815 172.357,227.643 172.185,226.500 172.075 C 225.370 171.966,225.200 171.802,225.200 170.821 C 225.200 169.552,224.487 169.215,221.788 169.205 C 220.371 169.201,220.121 169.057,219.729 168.017 L 219.283 166.835 203.818 166.809 L 188.353 166.784 188.477 168.460 M250.800 168.163 C 250.800 169.890,251.545 170.653,253.566 170.994 C 254.607 171.170,255.366 171.593,255.783 172.231 C 256.133 172.764,256.656 173.200,256.947 173.200 C 258.647 173.200,258.686 173.646,258.758 193.834 C 258.796 204.412,258.984 213.952,259.176 215.034 C 259.923 219.250,261.700 225.439,262.383 226.200 C 262.778 226.640,263.418 227.684,263.805 228.520 C 264.780 230.621,269.070 234.723,270.793 235.201 C 271.560 235.413,272.494 235.995,272.870 236.494 C 274.128 238.162,289.617 237.983,291.320 236.280 C 291.849 235.751,292.962 235.336,294.358 235.146 C 295.877 234.940,296.755 234.590,297.186 234.019 C 297.675 233.371,298.246 233.193,299.806 233.203 C 304.170 233.233,304.481 233.187,304.238 232.554 C 304.113 232.228,304.259 232.124,304.637 232.269 C 304.965 232.395,305.204 232.341,305.169 232.149 C 304.998 231.211,305.314 230.825,306.600 230.400 C 307.370 230.146,308.000 229.761,308.000 229.545 C 308.000 229.329,307.775 229.280,307.500 229.435 C 307.100 229.661,307.100 229.610,307.500 229.179 C 307.775 228.882,308.000 227.889,308.000 226.970 C 308.000 225.453,308.105 225.279,309.142 225.072 C 310.760 224.748,310.792 224.218,310.797 197.700 C 310.800 176.171,310.842 174.798,311.500 174.768 C 312.058 174.743,312.078 174.690,311.600 174.508 C 309.963 173.885,309.971 171.842,311.613 170.993 C 312.412 170.580,312.908 169.961,313.063 169.183 C 313.291 168.046,314.000 167.504,314.000 168.467 C 314.000 168.723,314.132 168.801,314.294 168.639 C 315.501 167.432,312.549 166.818,305.500 166.809 L 298.400 166.800 298.400 168.206 C 298.400 169.669,300.069 171.195,301.673 171.199 C 302.043 171.199,302.754 171.785,303.253 172.500 C 303.753 173.215,304.341 173.923,304.560 174.072 C 305.421 174.661,305.270 210.814,304.384 216.200 C 303.476 221.717,303.030 223.047,301.991 223.318 C 301.582 223.425,300.987 224.136,300.669 224.897 C 300.235 225.936,299.779 226.344,298.845 226.531 C 298.128 226.674,297.600 227.030,297.600 227.369 C 297.600 227.798,297.028 227.991,295.500 228.079 C 293.964 228.168,293.395 228.361,293.382 228.800 C 293.372 229.130,293.131 229.350,292.847 229.289 C 292.563 229.227,292.238 229.534,292.124 229.971 C 291.950 230.636,291.518 230.783,289.458 230.882 C 287.108 230.995,286.994 231.048,286.873 232.100 L 286.747 233.200 282.763 233.200 L 278.780 233.200 278.540 232.000 C 278.303 230.817,278.263 230.800,275.750 230.800 L 273.200 230.800 273.200 229.400 C 273.200 228.111,273.105 228.000,272.000 228.000 C 271.014 228.000,270.800 227.836,270.800 227.080 C 270.800 225.918,270.094 225.200,268.953 225.200 C 268.091 225.200,268.061 225.056,267.933 220.257 L 267.800 215.315 266.500 214.222 L 265.200 213.129 265.200 192.164 C 265.200 180.634,265.352 171.200,265.539 171.200 C 266.538 171.200,267.649 169.596,267.528 168.329 L 267.400 167.000 259.100 166.892 L 250.800 166.784 250.800 168.163 M270.451 167.475 C 270.932 168.066,270.913 168.117,270.300 167.887 C 269.653 167.645,269.642 167.727,270.166 168.980 C 270.477 169.725,270.612 170.468,270.466 170.631 C 270.320 170.794,270.550 170.801,270.978 170.647 C 271.714 170.380,271.719 170.405,271.078 171.114 C 270.325 171.946,270.184 172.800,270.800 172.800 C 271.288 172.800,271.151 173.689,270.600 174.094 C 269.967 174.559,271.147 174.456,272.061 173.967 C 272.672 173.640,272.809 173.289,272.619 172.534 C 272.457 171.889,272.516 171.624,272.784 171.790 C 273.013 171.932,273.200 171.857,273.200 171.624 C 273.200 171.391,272.885 171.186,272.500 171.168 C 272.078 171.149,271.999 171.056,272.302 170.934 C 272.579 170.823,272.703 170.567,272.579 170.366 C 272.455 170.165,272.543 170.000,272.776 170.000 C 273.370 170.000,273.307 168.910,272.700 168.664 C 272.323 168.511,272.347 168.359,272.797 168.047 C 273.282 167.710,273.298 167.538,272.880 167.120 C 272.462 166.702,272.290 166.718,271.953 167.203 C 271.641 167.653,271.489 167.677,271.336 167.300 C 271.225 167.025,270.856 166.800,270.518 166.800 C 269.990 166.800,269.980 166.896,270.451 167.475 M315.867 167.067 C 315.319 167.614,315.631 167.883,316.600 167.698 C 317.150 167.593,317.600 167.348,317.600 167.153 C 317.600 166.742,316.259 166.675,315.867 167.067 M324.477 168.452 C 324.597 170.086,324.646 170.138,326.722 170.812 C 327.889 171.191,329.239 171.862,329.722 172.302 C 330.205 172.742,331.083 173.350,331.674 173.651 C 332.966 174.311,334.449 176.268,335.777 179.063 C 336.316 180.198,336.940 181.239,337.162 181.377 C 337.385 181.514,338.049 182.701,338.638 184.013 C 339.227 185.326,339.843 186.400,340.006 186.400 C 340.169 186.400,340.540 186.985,340.829 187.700 C 341.118 188.415,341.950 189.875,342.678 190.945 C 343.405 192.015,344.000 193.126,344.000 193.414 C 344.000 193.703,344.417 194.447,344.927 195.069 C 345.437 195.691,346.098 196.809,346.397 197.553 C 346.696 198.297,347.335 199.377,347.816 199.953 C 348.297 200.529,348.825 201.450,348.990 202.000 C 349.155 202.550,349.708 203.450,350.219 204.000 C 350.730 204.550,351.514 205.855,351.960 206.900 C 352.406 207.945,352.937 208.800,353.139 208.800 C 353.342 208.800,353.915 209.806,354.415 211.036 C 354.914 212.266,355.551 213.360,355.830 213.467 C 356.109 213.574,356.636 214.413,357.001 215.331 C 357.366 216.249,358.001 217.362,358.413 217.805 C 358.825 218.248,359.438 219.271,359.775 220.078 C 360.112 220.885,360.575 221.661,360.803 221.802 C 361.031 221.943,361.750 223.112,362.400 224.400 C 363.050 225.688,363.761 226.852,363.980 226.987 C 364.198 227.123,364.740 228.052,365.183 229.054 C 366.165 231.275,369.049 234.800,369.883 234.800 C 370.218 234.800,371.110 235.475,371.865 236.300 C 373.323 237.892,375.824 238.243,380.540 237.517 C 384.724 236.872,383.357 233.220,378.927 233.205 C 377.400 233.200,377.242 233.103,377.127 232.100 C 377.029 231.248,376.761 230.972,375.940 230.877 C 375.085 230.778,374.831 230.489,374.622 229.377 C 374.397 228.177,374.212 228.000,373.182 228.000 C 372.041 228.000,371.590 226.760,371.966 224.659 C 372.094 223.947,371.520 222.781,371.070 222.837 C 369.525 223.027,369.200 222.777,369.200 221.400 C 369.200 220.494,369.010 220.000,368.662 220.000 C 367.837 220.000,366.801 218.650,366.795 217.569 C 366.783 215.511,366.362 214.800,365.153 214.800 C 364.029 214.800,364.000 214.746,363.994 212.700 C 363.988 210.576,363.627 209.501,362.963 209.626 C 361.611 209.881,361.200 209.549,361.200 208.200 C 361.200 206.911,361.105 206.800,360.000 206.800 C 358.820 206.800,358.800 206.765,358.794 204.700 C 358.787 202.204,358.511 201.680,356.966 201.217 C 355.953 200.914,355.921 200.864,356.720 200.834 C 357.727 200.797,358.800 198.838,358.800 197.039 C 358.800 196.261,359.032 196.026,359.900 195.927 C 360.799 195.823,361.022 195.578,361.119 194.580 C 361.209 193.667,361.520 193.255,362.358 192.938 C 363.481 192.514,364.000 191.255,364.000 188.950 C 364.000 188.164,364.204 188.000,365.182 188.000 C 366.216 188.000,366.397 187.825,366.626 186.600 C 366.771 185.830,367.126 185.200,367.416 185.200 C 368.507 185.200,369.200 183.956,369.200 181.997 C 369.200 180.094,369.229 180.048,370.500 179.925 C 371.647 179.815,371.823 179.637,372.000 178.407 C 372.167 177.243,372.365 177.012,373.200 177.007 C 373.936 177.002,374.211 176.776,374.243 176.154 C 374.266 175.689,374.412 175.104,374.566 174.854 C 374.734 174.584,374.574 174.400,374.172 174.400 C 373.456 174.400,373.472 173.861,374.336 169.065 C 374.769 166.658,375.007 166.748,368.579 166.887 L 363.400 167.000 363.537 168.167 C 363.690 169.461,364.993 171.704,366.601 173.439 L 367.651 174.572 366.613 175.329 C 366.042 175.744,365.326 176.681,365.022 177.410 C 364.717 178.139,364.094 178.936,363.636 179.181 C 363.140 179.446,362.629 180.326,362.367 181.365 C 362.063 182.572,361.631 183.240,360.956 183.547 C 360.352 183.823,359.889 184.453,359.739 185.205 C 359.601 185.897,359.002 186.771,358.348 187.237 C 357.540 187.813,357.126 188.523,356.947 189.641 C 356.781 190.681,356.401 191.383,355.847 191.674 C 354.735 192.259,354.414 192.783,354.406 194.024 C 354.396 195.734,353.539 196.538,352.071 196.216 L 350.800 195.936 350.800 192.994 C 350.800 189.251,350.352 188.000,349.010 188.000 C 348.065 188.000,348.000 187.872,348.000 186.000 C 348.000 184.900,347.820 184.000,347.600 184.000 C 347.380 184.000,347.245 183.775,347.300 183.500 C 347.355 183.225,347.130 182.976,346.800 182.946 C 346.470 182.917,345.975 182.872,345.700 182.846 C 345.406 182.819,345.200 182.234,345.200 181.426 C 345.200 179.503,344.533 177.960,343.595 177.715 C 343.158 177.600,342.800 177.182,342.800 176.786 C 342.800 175.525,342.338 174.800,341.534 174.800 C 341.104 174.800,340.863 174.622,340.997 174.405 C 341.132 174.187,340.989 174.106,340.681 174.224 C 340.173 174.419,339.617 172.142,339.063 167.600 C 339.001 167.096,337.822 166.983,331.671 166.891 L 324.353 166.782 324.477 168.452 M342.196 167.207 C 342.058 167.430,341.732 167.494,341.472 167.348 C 341.154 167.169,341.163 167.258,341.500 167.621 C 341.775 167.918,342.000 168.945,342.000 169.904 C 342.000 171.192,342.131 171.569,342.500 171.347 C 342.876 171.121,342.894 171.190,342.573 171.623 C 341.581 172.962,341.938 174.201,343.313 174.191 C 344.337 174.184,344.574 174.033,344.473 173.451 C 344.397 173.013,344.518 172.826,344.773 172.983 C 345.367 173.350,345.309 172.278,344.700 171.621 C 344.304 171.195,344.304 171.141,344.698 171.364 C 345.525 171.830,345.196 168.396,344.332 167.532 C 343.523 166.723,342.583 166.580,342.196 167.207 M377.850 167.184 C 377.969 167.303,378.277 167.408,378.533 167.418 C 378.790 167.428,378.942 167.698,378.871 168.018 C 378.769 168.481,378.846 168.499,379.246 168.105 C 380.090 167.276,381.194 168.640,381.234 170.562 C 381.268 172.178,381.274 172.184,381.640 171.000 C 382.165 169.301,381.769 168.108,380.454 167.428 C 379.403 166.885,377.360 166.693,377.850 167.184 M315.638 168.376 C 315.240 168.622,315.229 168.771,315.592 168.995 C 315.855 169.157,316.250 169.110,316.470 168.890 C 316.991 168.369,316.321 167.955,315.638 168.376 M379.465 168.575 C 379.338 168.905,379.419 169.288,379.645 169.428 C 379.870 169.567,379.958 169.933,379.840 170.240 C 379.534 171.039,379.900 170.933,380.350 170.094 C 380.606 169.616,380.561 169.161,380.211 168.683 C 379.772 168.082,379.660 168.066,379.465 168.575 M272.224 173.162 C 272.075 173.403,271.773 173.600,271.553 173.600 C 271.333 173.600,271.256 173.432,271.383 173.228 C 271.509 173.023,271.427 172.740,271.200 172.600 C 270.973 172.460,270.901 172.160,271.041 171.934 C 271.202 171.673,271.513 171.742,271.895 172.123 C 272.225 172.453,272.373 172.921,272.224 173.162 M126.185 172.645 C 125.749 173.327,123.620 173.527,121.735 173.063 C 120.194 172.684,119.596 173.791,120.537 175.282 C 120.856 175.787,121.233 176.590,121.374 177.066 C 121.516 177.542,122.705 179.912,124.016 182.332 C 125.327 184.752,126.400 186.946,126.400 187.206 C 126.400 187.467,127.037 188.317,127.815 189.095 C 128.593 189.873,129.164 190.710,129.084 190.955 C 128.819 191.766,126.378 191.717,125.456 190.882 C 124.985 190.456,123.749 189.790,122.708 189.402 C 121.668 189.015,120.238 188.271,119.531 187.749 C 118.823 187.227,117.946 186.800,117.582 186.800 C 117.217 186.800,116.127 186.379,115.160 185.865 C 114.192 185.351,112.457 184.617,111.305 184.234 C 108.274 183.228,108.305 183.111,112.750 178.650 C 115.395 175.996,116.800 174.285,116.800 173.717 C 116.800 172.740,116.188 172.173,115.804 172.793 C 115.666 173.017,115.018 173.200,114.365 173.200 C 113.213 173.200,112.416 173.775,109.157 176.958 C 107.893 178.192,106.292 178.026,105.746 176.603 C 105.615 176.261,105.022 176.000,104.377 176.000 C 103.716 176.000,103.069 175.707,102.832 175.300 C 102.444 174.633,102.421 174.633,102.362 175.300 C 102.328 175.685,102.266 176.225,102.225 176.500 C 102.183 176.775,102.384 177.283,102.671 177.628 C 103.082 178.122,104.800 182.497,104.800 183.049 C 104.800 183.720,102.903 184.009,101.190 183.598 C 98.843 183.035,97.600 183.345,97.600 184.494 C 97.600 185.373,97.208 185.262,97.046 184.337 C 96.651 182.094,94.984 180.866,93.008 181.362 L 92.000 181.615 92.000 186.759 C 92.000 192.308,92.578 194.712,94.002 195.085 C 94.535 195.224,94.792 195.710,94.878 196.739 C 95.023 198.466,95.615 198.678,100.500 198.753 C 102.268 198.780,103.600 198.972,103.600 199.200 C 103.600 199.420,103.420 199.600,103.200 199.600 C 102.712 199.600,102.849 200.489,103.400 200.894 C 103.648 201.076,103.610 201.190,103.300 201.194 C 102.921 201.199,102.800 202.735,102.800 207.525 L 102.800 213.850 104.000 215.000 C 104.945 215.906,105.201 216.495,105.204 217.775 C 105.214 221.148,105.607 222.346,106.749 222.478 C 107.721 222.591,107.816 222.775,108.006 224.918 C 108.215 227.263,108.704 227.982,110.100 227.994 C 110.605 227.998,110.800 228.325,110.800 229.168 C 110.800 230.131,111.003 230.381,111.954 230.590 C 112.826 230.781,113.167 231.133,113.344 232.022 C 113.542 233.008,113.773 233.200,114.765 233.200 C 115.809 233.200,115.964 233.354,116.075 234.500 C 116.188 235.679,116.335 235.811,117.659 235.922 C 118.689 236.008,119.176 236.265,119.315 236.798 C 119.525 237.599,121.935 238.800,123.334 238.800 C 123.794 238.800,124.564 239.295,125.047 239.900 L 125.923 241.000 139.562 241.115 L 153.200 241.230 153.200 240.015 C 153.200 238.801,153.202 238.800,155.520 238.800 C 158.027 238.800,158.800 238.357,158.800 236.920 C 158.800 236.076,158.974 236.000,160.920 236.000 C 163.234 236.000,164.000 235.533,164.000 234.120 C 164.000 233.372,164.216 233.200,165.155 233.200 C 166.155 233.200,166.346 233.015,166.569 231.825 C 166.779 230.706,167.029 230.427,167.913 230.325 C 168.951 230.206,169.005 230.088,169.119 227.700 L 169.238 225.200 170.619 225.200 C 171.926 225.200,172.000 225.126,172.000 223.827 C 172.000 222.627,172.139 222.437,173.095 222.327 C 174.337 222.183,174.735 220.869,174.777 216.764 C 174.797 214.810,174.920 214.474,175.750 214.096 C 177.149 213.458,178.064 200.800,176.710 200.800 C 176.478 200.800,176.522 200.535,176.814 200.183 C 177.543 199.305,176.695 198.457,175.817 199.186 C 175.315 199.602,175.200 199.602,175.200 199.182 C 175.200 198.103,174.742 199.185,174.576 200.658 C 174.300 203.094,173.985 204.147,173.307 204.900 C 171.877 206.487,170.400 205.317,170.400 202.598 C 170.400 201.785,169.972 200.405,169.431 199.471 C 168.899 198.552,168.335 196.900,168.179 195.800 C 167.877 193.668,167.012 191.600,166.421 191.600 C 166.223 191.600,165.851 190.962,165.594 190.181 C 165.213 189.026,163.029 185.973,161.693 184.727 C 161.532 184.576,160.719 183.811,159.887 183.027 C 159.054 182.242,158.216 181.600,158.025 181.600 C 157.833 181.600,156.939 180.984,156.038 180.232 C 155.137 179.479,153.815 178.742,153.100 178.594 C 152.385 178.446,151.159 177.891,150.376 177.361 C 148.387 176.014,143.633 175.470,136.400 175.763 C 129.987 176.023,127.935 175.544,127.676 173.727 C 127.499 172.488,126.669 171.886,126.185 172.645 M316.352 174.112 C 316.545 174.305,317.219 174.398,317.851 174.319 C 318.909 174.187,318.881 174.159,317.500 173.968 C 316.640 173.849,316.150 173.910,316.352 174.112 M142.800 180.976 C 142.800 182.293,142.987 182.365,147.144 182.660 C 150.664 182.910,150.761 182.944,150.879 183.958 C 150.993 184.942,151.140 185.007,153.500 185.119 L 156.000 185.238 156.000 186.619 C 156.000 187.931,156.070 188.000,157.400 188.000 C 158.703 188.000,158.800 188.087,158.800 189.257 C 158.800 190.132,159.165 190.862,160.000 191.660 C 160.660 192.291,161.202 193.120,161.205 193.503 C 161.219 195.288,161.688 196.000,162.847 196.000 L 164.000 196.000 164.046 202.500 C 164.071 206.075,164.058 209.330,164.015 209.733 C 163.973 210.137,164.267 210.716,164.669 211.021 C 165.373 211.554,165.372 211.575,164.633 211.587 C 164.212 211.594,163.958 211.691,164.069 211.803 C 164.794 212.527,166.721 211.439,166.924 210.191 C 167.491 206.695,169.731 205.628,170.146 208.656 C 170.676 212.523,170.465 214.661,169.434 215.887 C 168.902 216.519,168.340 217.716,168.184 218.546 C 168.028 219.377,167.498 220.539,167.006 221.129 C 166.515 221.718,165.825 222.740,165.474 223.400 C 164.263 225.675,157.983 231.710,156.296 232.219 C 155.803 232.368,154.950 232.902,154.400 233.406 C 153.824 233.934,152.409 234.523,151.061 234.797 C 149.775 235.059,147.795 235.705,146.661 236.233 C 143.642 237.638,136.257 237.648,132.888 236.251 C 131.630 235.729,129.610 235.077,128.400 234.803 C 127.190 234.528,125.750 233.895,125.200 233.396 C 124.650 232.898,123.790 232.366,123.289 232.215 C 122.540 231.988,120.088 230.156,118.200 228.412 C 115.925 226.312,112.422 221.408,111.716 219.336 C 111.391 218.381,110.979 217.600,110.802 217.600 C 109.737 217.600,109.171 211.379,110.059 209.430 C 110.840 207.717,113.155 208.910,113.187 211.043 C 113.198 211.736,113.432 211.876,114.500 211.833 C 115.962 211.774,115.805 212.533,115.936 204.900 L 116.000 201.200 125.173 201.200 C 135.518 201.200,134.938 201.395,134.737 197.980 L 134.638 196.304 132.219 196.580 C 129.324 196.912,128.951 196.929,127.400 196.801 C 126.740 196.746,124.899 196.930,123.308 197.208 C 119.147 197.937,116.751 197.069,117.025 194.932 C 117.356 192.340,118.486 192.236,122.631 194.416 C 125.481 195.915,127.305 195.960,128.600 194.562 C 129.465 193.629,129.737 193.555,131.281 193.838 C 132.227 194.011,133.180 194.172,133.400 194.195 C 133.620 194.218,133.765 194.423,133.722 194.652 C 133.679 194.880,133.871 195.067,134.149 195.067 C 134.524 195.067,134.635 194.086,134.584 191.233 C 134.476 185.156,134.785 182.400,135.575 182.400 C 136.447 182.400,137.200 181.621,137.200 180.720 C 137.200 180.095,137.570 180.000,140.000 180.000 C 142.702 180.000,142.800 180.034,142.800 180.976 M109.997 187.240 C 110.329 187.592,111.995 188.550,113.700 189.368 C 115.405 190.186,116.800 190.920,116.800 190.999 C 116.800 192.817,110.350 193.037,109.426 191.251 C 108.773 189.987,107.846 189.614,105.343 189.605 C 103.205 189.598,102.861 188.791,104.231 186.994 C 105.849 184.874,107.846 184.959,109.997 187.240 M103.305 191.995 L 103.931 193.589 101.896 194.194 C 99.487 194.909,98.367 194.351,98.702 192.602 C 98.937 191.371,99.484 190.917,101.000 190.695 C 101.660 190.599,102.308 190.493,102.439 190.460 C 102.571 190.427,102.961 191.118,103.305 191.995 M112.654 194.768 C 113.344 195.188,114.334 195.599,114.854 195.681 C 115.748 195.822,111.201 198.400,110.059 198.400 C 109.453 198.400,109.142 199.608,108.909 202.865 C 108.789 204.551,108.534 206.171,108.342 206.465 C 107.530 207.713,105.600 203.443,105.600 200.399 C 105.600 199.670,105.434 199.255,105.200 199.400 C 104.618 199.760,104.733 199.122,105.413 198.224 C 105.736 197.796,106.000 197.001,106.000 196.455 C 106.000 194.040,109.857 193.062,112.654 194.768 M188.174 204.000 C 188.174 209.610,188.230 211.905,188.299 209.100 C 188.368 206.295,188.368 201.705,188.299 198.900 C 188.230 196.095,188.174 198.390,188.174 204.000 M345.942 206.751 C 344.626 207.586,344.051 208.245,343.875 209.123 C 343.742 209.792,343.102 210.882,342.453 211.546 C 341.805 212.209,341.156 213.289,341.012 213.946 C 340.867 214.604,340.318 215.424,339.790 215.770 C 339.259 216.118,338.648 217.079,338.420 217.925 C 338.194 218.765,337.557 219.877,337.004 220.396 C 336.452 220.915,336.000 221.682,336.000 222.100 C 336.000 222.519,335.474 223.388,334.831 224.030 C 334.188 224.673,333.446 225.874,333.182 226.700 C 332.918 227.525,332.322 228.616,331.858 229.124 C 329.852 231.323,329.474 236.034,331.168 237.728 C 331.809 238.369,336.436 237.835,336.864 237.071 C 337.335 236.230,338.156 236.213,338.971 237.029 C 339.317 237.374,339.600 237.500,339.600 237.309 C 339.600 237.117,339.384 236.744,339.120 236.480 C 338.747 236.107,338.791 236.000,339.320 236.000 C 340.058 236.000,340.252 235.003,339.593 234.596 C 339.370 234.458,339.291 234.177,339.417 233.972 C 339.544 233.768,339.457 233.600,339.224 233.600 C 338.646 233.600,338.689 234.514,339.300 235.209 C 339.575 235.523,339.364 235.424,338.832 234.989 C 337.868 234.203,337.865 234.203,338.156 235.000 C 338.384 235.627,338.342 235.696,337.961 235.317 C 337.578 234.938,337.590 234.694,338.015 234.181 C 338.474 233.628,338.469 233.549,337.978 233.662 C 337.285 233.821,337.200 233.618,337.200 231.800 C 337.200 230.523,337.301 230.400,338.357 230.400 C 339.725 230.400,340.000 229.859,340.000 227.167 C 340.000 225.267,340.039 225.200,341.150 225.200 C 342.395 225.200,342.800 224.254,342.800 221.350 C 342.800 220.117,342.904 220.000,344.000 220.000 C 345.096 220.000,345.200 219.883,345.200 218.650 C 345.200 217.484,345.356 217.269,346.346 217.071 C 347.659 216.808,347.999 215.780,348.002 212.050 C 348.003 210.813,348.198 209.101,348.436 208.248 C 349.123 205.771,348.282 205.267,345.942 206.751 M90.400 234.000 C 90.400 234.220,90.805 234.397,91.300 234.394 C 92.028 234.389,92.085 234.314,91.600 234.000 C 90.824 233.499,90.400 233.499,90.400 234.000 M46.000 237.050 C 46.000 238.839,45.465 240.400,44.853 240.400 C 44.677 240.400,44.533 240.140,44.533 239.822 C 44.533 239.504,44.728 239.279,44.967 239.322 C 45.237 239.371,45.397 238.546,45.391 237.133 C 45.387 235.886,45.522 234.952,45.691 235.057 C 45.861 235.161,46.000 236.058,46.000 237.050 " stroke="none" fill="#734610" fill-rule="evenodd"></path></g></svg>